<svg xmlns="http://www.w3.org/2000/svg" xmlns:xlink="http://www.w3.org/1999/xlink" viewBox="0 0 306.81 306.81"><defs><style>.cls-1{fill:url(#Dégradé_sans_nom_8);}</style><linearGradient id="Dégradé_sans_nom_8" x1="-7.74" y1="153.4" x2="440.93" y2="153.4" gradientUnits="userSpaceOnUse"><stop offset="0" stop-color="#7459a2"/><stop offset="0.01" stop-color="#765aa2"/><stop offset="0.2" stop-color="#9967a8"/><stop offset="0.4" stop-color="#b572ad"/><stop offset="0.6" stop-color="#c97ab0"/><stop offset="0.8" stop-color="#d57eb2"/><stop offset="1" stop-color="#d980b3"/></linearGradient></defs><g id="Calque_2" data-name="Calque 2"><g id="Calque_1-2" data-name="Calque 1"><path class="cls-1" d="M306.43,164.37c-5,72.44-69.62,137-142.06,142.06A153.43,153.43,0,0,1,0,155.3a1.88,1.88,0,0,1,1.88-1.9H17.45a1.87,1.87,0,0,1,1.87,1.86A134.1,134.1,0,0,0,151.58,287.48c75.17,1,136.93-60.8,135.9-136A134.1,134.1,0,0,0,155.26,19.32a1.87,1.87,0,0,1-1.86-1.87V1.88A1.88,1.88,0,0,1,155.3,0,153.43,153.43,0,0,1,306.43,164.37Z"/></g></g></svg>